<svg id="svg" version="1.1" xmlns="http://www.w3.org/2000/svg" xmlns:xlink="http://www.w3.org/1999/xlink" width="400" height="326.5446224256293" viewBox="0, 0, 400,326.5446224256293"><g id="svgg"><path id="path0" d="M203.890 30.591 C 206.282 32.287,206.396 32.459,235.700 78.677 C 251.446 103.511,264.374 123.952,264.429 124.100 C 264.762 124.993,252.069 132.634,244.279 136.231 C 204.023 154.820,166.092 149.966,138.760 122.729 C 137.055 121.030,135.633 119.675,135.600 119.717 C 135.567 119.760,123.272 139.357,108.278 163.267 L 81.016 206.740 81.640 207.254 C 84.037 209.223,91.929 214.166,97.427 217.140 C 124.264 231.658,157.471 236.944,190.160 231.903 C 229.739 225.799,272.571 204.195,296.397 178.317 L 298.136 176.427 298.580 177.058 C 299.832 178.835,365.689 281.281,366.109 282.105 C 366.380 282.636,366.754 283.662,366.940 284.384 C 367.250 285.593,367.267 285.615,367.152 284.668 C 366.922 282.782,366.141 281.544,317.336 205.743 C 290.627 164.260,254.960 108.541,238.077 81.922 C 207.270 33.351,206.168 31.679,204.320 30.710 C 203.769 30.421,203.576 30.368,203.890 30.591 M367.330 286.728 C 367.330 287.168,367.377 287.348,367.435 287.128 C 367.492 286.908,367.492 286.547,367.435 286.327 C 367.377 286.107,367.330 286.287,367.330 286.728 M366.969 288.841 C 366.609 291.049,364.860 293.780,362.700 295.507 C 362.260 295.859,362.105 296.044,362.357 295.918 C 364.581 294.807,367.530 290.157,367.223 288.243 C 367.179 287.967,367.070 288.223,366.969 288.841 " stroke="none" fill="#945cd3" fill-rule="evenodd"></path><path id="path1" d="M295.309 179.568 C 275.165 200.796,242.774 218.980,208.810 228.127 C 176.960 236.705,143.097 235.609,114.826 225.087 C 103.135 220.736,87.169 212.200,81.639 207.345 L 80.867 206.667 57.313 244.237 C 40.250 271.452,33.617 282.218,33.247 283.295 C 31.257 289.078,35.001 296.029,40.733 297.196 C 42.894 297.635,357.725 297.384,359.332 296.941 C 365.267 295.304,368.614 288.594,366.319 282.932 C 365.835 281.738,298.459 176.690,298.169 176.678 C 298.106 176.676,296.819 177.976,295.309 179.568 " stroke="none" fill="#242434" fill-rule="evenodd"></path><path id="path2" d="M195.447 29.410 C 191.198 30.600,192.909 28.181,166.024 71.013 C 152.976 91.801,140.814 111.159,138.999 114.030 C 137.183 116.901,135.698 119.346,135.698 119.464 C 135.698 119.852,141.805 125.773,144.693 128.183 C 171.524 150.582,206.994 153.448,244.279 136.231 C 252.069 132.634,264.762 124.993,264.429 124.100 C 264.066 123.127,206.865 33.326,206.102 32.531 C 203.320 29.633,199.083 28.392,195.447 29.410 " stroke="none" fill="#b38beb" fill-rule="evenodd"></path><path id="path3" d="M295.182 179.577 L 294.394 180.435 295.252 179.646 C 295.724 179.212,296.110 178.826,296.110 178.788 C 296.110 178.613,295.916 178.778,295.182 179.577 M291.521 183.238 L 290.732 184.096 291.590 183.308 C 292.389 182.574,292.554 182.380,292.379 182.380 C 292.341 182.380,291.955 182.766,291.521 183.238 M152.460 233.339 C 152.680 233.396,153.041 233.396,153.261 233.339 C 153.481 233.281,153.301 233.234,152.860 233.234 C 152.420 233.234,152.240 233.281,152.460 233.339 M155.552 233.571 C 155.837 233.626,156.248 233.624,156.467 233.567 C 156.686 233.510,156.453 233.465,155.950 233.467 C 155.446 233.470,155.267 233.517,155.552 233.571 M175.232 233.571 C 175.516 233.626,175.928 233.624,176.147 233.567 C 176.366 233.510,176.133 233.465,175.629 233.467 C 175.126 233.470,174.947 233.517,175.232 233.571 M160.126 233.806 C 160.661 233.854,161.536 233.854,162.071 233.806 C 162.606 233.758,162.168 233.718,161.098 233.718 C 160.029 233.718,159.591 233.758,160.126 233.806 M169.508 233.806 C 170.043 233.854,170.918 233.854,171.453 233.806 C 171.988 233.758,171.550 233.718,170.481 233.718 C 169.411 233.718,168.973 233.758,169.508 233.806 M367.117 286.728 C 367.117 287.420,367.160 287.703,367.212 287.357 C 367.264 287.011,367.264 286.445,367.212 286.098 C 367.160 285.752,367.117 286.035,367.117 286.728 " stroke="none" fill="#5c4484" fill-rule="evenodd"></path><path id="path4" d="" stroke="none" fill="#543c7c" fill-rule="evenodd"></path></g></svg>