<svg id="Layer_1" data-name="Layer 1" xmlns="http://www.w3.org/2000/svg" viewBox="0 0 80 89.24"><defs><style>.cls-1{fill:none;}.cls-2{fill:#fff;}.cls-3{fill:#0a2463;}.cls-4{fill:#d4e2fe;}</style></defs><path class="cls-1" d="M-317,394.34Z" transform="translate(366.79 -364.11)"/><path class="cls-2" d="M-328.32,393.32a3.74,3.74,0,0,1-.67-.27,9.27,9.27,0,0,0,2.61,2.95.68.68,0,0,1,.24.77.69.69,0,0,1-.64.52c-5.78.42-9.59-6.4-10-7.07-2.9-4.11-4.83-4.68-7.76-5.55-.52-.15-1.06-.32-1.61-.52-.1,0-.19-.07-.29-.1l-.25-.07a.74.74,0,0,1-.13-.08,8.42,8.42,0,0,1-2.35-1.43,15.33,15.33,0,0,0,4,12.29.7.7,0,0,1,.19.65c-4.58,24.61-8.47,42.71-8.8,44.07-1.39,5.55-3.34,8.78-5.8,9.52a.18.18,0,0,1-.12,0c4.76,2.72,16,6.19,35.47-4.69-.62-2.06-2.53-8.33-2.9-9.62a37.11,37.11,0,0,1-2.9-4.63c-1.58-2.66-3.54-5.95-4.71-7.56-7-1.79-9.27-6-9.37-6.2a.73.73,0,0,1,.3-1,.7.7,0,0,1,1,.3s2.18,3.94,8.67,5.53a.72.72,0,0,1,.4.27c1.21,1.59,3.2,5,5,7.91,1.11,1.88,2.4,4,2.67,4.34,0,0,0,.05,0,.07l.1.07a4,4,0,0,0,.89.7l.13.07c2.8,1.91,6.67,2.41,9,1.19a4.21,4.21,0,0,0,2.21-3.19,12.48,12.48,0,0,1-4.51.94,8.5,8.5,0,0,1-2.88-.5,8.12,8.12,0,0,1-4.44-3.89.74.74,0,0,1,.35-1,.74.74,0,0,1,1,.35,6.68,6.68,0,0,0,2.45,2.6c2.28,1.39,5.16,1.27,8.55-.34h.05c1.34-.57,3.15-3.08,1.44-9-.52-1.84-2.82-11.21-3.91-16.59a.49.49,0,0,1,0-.34,11.4,11.4,0,0,0-.2-8.21c-2.25-.89-3.79-2.63-5.4-4.56.07,1.46,1,2.55,2.63,3.92a.71.71,0,0,1,.19.84.69.69,0,0,1-.74.44c-4.73-.47-6.45-2.38-7.19-4.16a3.34,3.34,0,0,1-1.24.27A2.35,2.35,0,0,1-328.32,393.32Zm-5.57,12.25a1.86,1.86,0,0,1-2.06-1.64,1.85,1.85,0,0,1,1.63-2.05,1.86,1.86,0,0,1,2.06,1.63A1.86,1.86,0,0,1-333.89,405.57Zm2-5.31a.73.73,0,0,1-1,.05,2.89,2.89,0,0,0-1.83-.69,2.43,2.43,0,0,0-1.59.94.72.72,0,0,1-.57.27.62.62,0,0,1-.45-.17.75.75,0,0,1-.09-1,3.68,3.68,0,0,1,2.6-1.48,4.3,4.3,0,0,1,2.9,1.06A.74.74,0,0,1-331.91,400.26Zm17.52,22c.45-.08.92.54,1.05,1.36s-.15,1.54-.6,1.61-.92-.54-1-1.36S-314.83,422.35-314.39,422.28Zm-3.74,3.62c-.44.07-.92-.55-1-1.37s.15-1.53.6-1.61.91.55,1,1.37S-317.68,425.82-318.13,425.9Zm-.22-21.27a1.86,1.86,0,0,1-2.06-1.64,1.87,1.87,0,0,1,1.64-2.06,1.86,1.86,0,0,1,2,1.64A1.86,1.86,0,0,1-318.35,404.63Zm-2.8-5.53a3.7,3.7,0,0,1,2.6-1.49,4.29,4.29,0,0,1,2.9,1.07.7.7,0,0,1,0,1,.73.73,0,0,1-1,.05,2.8,2.8,0,0,0-1.83-.69A2.43,2.43,0,0,0-320,400a.71.71,0,0,1-.57.27.59.59,0,0,1-.44-.17A.65.65,0,0,1-321.15,399.1Z" transform="translate(366.79 -364.11)"/><path class="cls-3" d="M-318.77,381.37c-1-.69-2-1.33-3-1.95,0,0,0,.07-.05.1a9,9,0,0,1-.28,3.61,13.46,13.46,0,0,1,5,6.72,16.56,16.56,0,0,0,3.72,5.95,7.44,7.44,0,0,1-3.65-1.46h0a21.25,21.25,0,0,1-3.34-3.45l-.82-1a.69.69,0,0,0-.55-.25.39.39,0,0,0-.15,0,.74.74,0,0,0-.54.5,5.23,5.23,0,0,0,1.14,5.26c-2.56-.7-3.45-2-3.89-3.25a2,2,0,0,1-.43.47.23.23,0,0,1-.09.07,5.4,5.4,0,0,1-.7.38c.75,1.78,2.46,3.69,7.19,4.16a.73.73,0,0,0,.74-.45.73.73,0,0,0-.19-.84c-1.62-1.36-2.56-2.48-2.63-3.92,1.61,1.94,3.15,3.67,5.4,4.57a11.37,11.37,0,0,1,.2,8.2.82.82,0,0,0,0,.35c1.09,5.38,3.37,14.75,3.91,16.58,1.69,5.93-.1,8.43-1.44,9h0c-3.4,1.61-6.28,1.74-8.56.35a6.61,6.61,0,0,1-2.45-2.61.71.71,0,0,0-1-.34.71.71,0,0,0-.35,1,8.11,8.11,0,0,0,4.44,3.9,8.5,8.5,0,0,0,2.88.49,12.48,12.48,0,0,0,4.51-.94,4.23,4.23,0,0,1-2.21,3.2c-2.3,1.21-6.17.72-9-1.19l-.12-.08a6.47,6.47,0,0,1-.9-.69.29.29,0,0,0-.1-.07.35.35,0,0,0-.05-.08c-.27-.3-1.56-2.43-2.67-4.34-1.76-2.95-3.75-6.32-5-7.9a.86.86,0,0,0-.4-.28c-6.52-1.58-8.65-5.48-8.67-5.53a.71.71,0,0,0-1-.29.69.69,0,0,0-.3,1c.1.18,2.38,4.42,9.37,6.2,1.19,1.61,3.15,4.91,4.71,7.56a46.74,46.74,0,0,0,2.9,4.64c.37,1.29,2.28,7.58,2.9,9.62C-343.66,455.2-355,451.73-359.7,449l.12,0c2.46-.75,4.39-4,5.8-9.52.35-1.37,4.24-19.46,8.8-44.08a.7.7,0,0,0-.19-.64,15.34,15.34,0,0,1-4-12.3,9,9,0,0,0,2.35,1.44l.13.07.25.08c.1,0,.19.07.29.1.57.19,1.12.34,1.62.52,2.92.86,4.83,1.46,7.78,5.55.37.69,4.19,7.49,10,7.07a.76.76,0,0,0,.65-.53.74.74,0,0,0-.25-.76,9.77,9.77,0,0,1-2.6-3,4.18,4.18,0,0,1-1.64-1.71v0l0,0a.27.27,0,0,1,0-.15s0-.05,0-.08v0h0a7.8,7.8,0,0,1,.2-1.66,6.5,6.5,0,0,0,.07,4A6.31,6.31,0,0,0-329,395.6c-3.89-1.16-6.52-6-6.55-6.12s0-.05-.05-.07c-.17-.25-.37-.5-.54-.72a1.15,1.15,0,0,0-.15-.2c-.12-.17-.25-.32-.37-.47a.84.84,0,0,0-.18-.2c-.14-.17-.29-.35-.44-.5l-.08-.07c-.17-.17-.32-.35-.49-.5l-.15-.14c-.12-.1-.22-.23-.32-.33l-.18-.15a3.37,3.37,0,0,0-.37-.29s-.07,0-.1-.1-.29-.23-.44-.35a.93.93,0,0,0-.18-.12c-.1-.08-.2-.13-.29-.2s-.13-.08-.18-.13a2.28,2.28,0,0,0-.3-.17.41.41,0,0,1-.14-.1l-.43-.22a1.74,1.74,0,0,0-.19-.1c-.08-.05-.18-.07-.25-.12a2.29,2.29,0,0,0-.23-.1,1.08,1.08,0,0,0-.24-.1,1.15,1.15,0,0,1-.23-.1c-.67-.25-1.36-.47-2.08-.67-.3-.1-.59-.17-.92-.27a19.84,19.84,0,0,1,11.31-3.8,16.82,16.82,0,0,1,5.63.92,13.17,13.17,0,0,1,.59-1.61v0a7.13,7.13,0,0,1,.65-1.14c.07-.34.12-.69.19-1-14.7-9.12-22.6-11.72-29.79-8.45-6,2.75-9.5,8.33-7.47,33.47,1.67,20.77-8.62,40.68,2,48.09,15.57,10.86,40.81-3,52.11-13.12,13.06-11.7,23-16.6,23-28C-286.79,395.16-301.47,392.78-318.77,381.37Zm-44,65.25c-1.41-1.46-2.23-4.19-2.26-7.61.7,1.19,1.89,2.78,3.3,3,3.62.47,4.39-3.15,5.43-8.14a49.31,49.31,0,0,1,3.3-11,.36.36,0,0,0-.13-.45.35.35,0,0,0-.47.08c-2.06,2.43-5.33,2-8.48,1,6.55-1.64,7.44-5.88,8.48-10.76a30.16,30.16,0,0,1,2.48-7.93.38.38,0,0,0-.12-.48.39.39,0,0,0-.47,0,8.18,8.18,0,0,1-10,2.31c2-.3,5.75-1.56,7.12-6.94a83.24,83.24,0,0,1,4-11.78,17.31,17.31,0,0,0,4.14,7.44c-.43,2.26-4.47,23.4-7.39,37.14-.65,3.07-1.74,7.63-2.41,10.16-.86,3.07-2.47,4.86-4.46,4.91A3.05,3.05,0,0,1-362.75,446.62Z" transform="translate(366.79 -364.11)"/><path class="cls-3" d="M-334.29,401.88a1.87,1.87,0,0,0-1.64,2.05,1.88,1.88,0,0,0,2.06,1.64,1.88,1.88,0,0,0,1.64-2.06A1.91,1.91,0,0,0-334.29,401.88Z" transform="translate(366.79 -364.11)"/><path class="cls-3" d="M-318.75,401a1.88,1.88,0,0,0-1.63,2.06,1.87,1.87,0,0,0,2.05,1.63,1.88,1.88,0,0,0,1.64-2.06A1.86,1.86,0,0,0-318.75,401Z" transform="translate(366.79 -364.11)"/><path class="cls-3" d="M-334.86,398.18a3.66,3.66,0,0,0-2.6,1.49.75.75,0,0,0,.09,1,.78.78,0,0,0,.45.17.79.79,0,0,0,.57-.27,2.26,2.26,0,0,1,1.59-.95,2.72,2.72,0,0,1,1.83.7.72.72,0,0,0,1,0,.72.72,0,0,0,0-1A4.17,4.17,0,0,0-334.86,398.18Z" transform="translate(366.79 -364.11)"/><path class="cls-3" d="M-320.61,400.26A.75.75,0,0,0-320,400a2.24,2.24,0,0,1,1.59-.94,2.7,2.7,0,0,1,1.83.69.71.71,0,0,0,1-.05.7.7,0,0,0,0-1,4.29,4.29,0,0,0-2.9-1.07,3.66,3.66,0,0,0-2.6,1.49.74.74,0,0,0,.1,1A.7.7,0,0,0-320.61,400.26Z" transform="translate(366.79 -364.11)"/><path class="cls-3" d="M-318.57,422.92c-.45.08-.72.8-.6,1.61s.6,1.42,1,1.37.72-.8.6-1.61S-318.13,422.87-318.57,422.92Z" transform="translate(366.79 -364.11)"/><path class="cls-3" d="M-313.94,425.25c.45-.07.72-.79.6-1.61s-.6-1.41-1.05-1.36-.71.79-.59,1.61S-314.39,425.3-313.94,425.25Z" transform="translate(366.79 -364.11)"/><path class="cls-4" d="M-328.07,380.14a16.29,16.29,0,0,0-5.63-.92A19.62,19.62,0,0,0-345,383c.32.1.62.2.92.27.72.23,1.41.42,2.08.67a1.07,1.07,0,0,1,.22.1,1.45,1.45,0,0,0,.25.1,2.14,2.14,0,0,0,.22.1,1.15,1.15,0,0,1,.25.12.93.93,0,0,1,.2.1l.42.23a.44.44,0,0,1,.15.1l.3.17c.05,0,.12.07.17.12s.2.13.3.2a1.26,1.26,0,0,0,.17.13,4.43,4.43,0,0,1,.45.34s.07.05.1.1l.37.3.17.15a3.22,3.22,0,0,1,.32.32l.15.15.5.49.07.08.45.49a1.06,1.06,0,0,0,.17.2,5.9,5.9,0,0,1,.37.47c.05.08.1.13.15.2.18.23.35.47.55.72a.35.35,0,0,0,0,.08c0,.05,2.65,4.93,6.54,6.12a6.59,6.59,0,0,1-1.48-2.26,6.4,6.4,0,0,1-.08-4,17.92,17.92,0,0,1,1.66-4.41A18.4,18.4,0,0,1-328.07,380.14Z" transform="translate(366.79 -364.11)"/><path class="cls-4" d="M-325.14,392.21c.44,1.29,1.33,2.58,3.89,3.25a5.25,5.25,0,0,1-1.14-5.26.69.69,0,0,1,.54-.5l.15,0a.77.77,0,0,1,.55.25l.82,1a20.81,20.81,0,0,0,3.34,3.45h0a7.17,7.17,0,0,0,3.65,1.46,16,16,0,0,1-3.72-5.95,13.46,13.46,0,0,0-5-6.72,11.37,11.37,0,0,1-1.14,2.81A11.89,11.89,0,0,1-325.14,392.21Z" transform="translate(366.79 -364.11)"/><path class="cls-4" d="M-356.23,442.73c.67-2.53,1.76-7.09,2.4-10.16,2.9-13.74,6.95-34.88,7.39-37.14a17.77,17.77,0,0,1-4.14-7.44,84.57,84.57,0,0,0-4,11.78c-1.34,5.38-5.08,6.67-7.11,6.94a8.24,8.24,0,0,0,10-2.33.33.33,0,0,1,.47-.05.37.37,0,0,1,.12.47,29.19,29.19,0,0,0-2.48,7.93c-1,4.89-1.91,9.13-8.48,10.76,3.15,1,6.4,1.37,8.48-1a.35.35,0,0,1,.47-.07.35.35,0,0,1,.13.44,49.38,49.38,0,0,0-3.3,11c-1,5-1.81,8.6-5.43,8.13-1.44-.17-2.63-1.78-3.3-3,.05,3.42.85,6.14,2.26,7.61a3,3,0,0,0,2.08,1C-358.68,447.59-357.07,445.8-356.23,442.73Z" transform="translate(366.79 -364.11)"/><path class="cls-2" d="M-328.91,391.29a2.08,2.08,0,0,0,1,.65,1.73,1.73,0,0,0,1.42-.33,7.85,7.85,0,0,0,1.53-3.52A16.92,16.92,0,0,1-328.91,391.29Z" transform="translate(366.79 -364.11)"/><path class="cls-2" d="M-327.47,385.54h0a15,15,0,0,0-1.62,4.16,17.15,17.15,0,0,0,4.54-4.38,9.87,9.87,0,0,0,1.34-4C-324.95,383.23-327.33,385.42-327.47,385.54Z" transform="translate(366.79 -364.11)"/><path class="cls-2" d="M-321.35,366.85a31.42,31.42,0,0,0-3.65,9c1-1.07,2.11-2.33,3-3.47A14.31,14.31,0,0,0-321.35,366.85Z" transform="translate(366.79 -364.11)"/><path class="cls-2" d="M-327.28,383.38a37.3,37.3,0,0,0,4.09-4.36,11.17,11.17,0,0,0,1.19-4.39c-1.78,2.08-3.79,4.17-4.21,4.59A16.58,16.58,0,0,0-327.28,383.38Z" transform="translate(366.79 -364.11)"/><path class="cls-3" d="M-327.45,378.52h0a14,14,0,0,0-.59,1.62,17.34,17.34,0,0,0-.75,4.83,16.15,16.15,0,0,0-1.66,4.41,7.68,7.68,0,0,0-.2,1.66h0v0s0,.05,0,.07a.39.39,0,0,0,0,.15l0,0v0a4.56,4.56,0,0,0,1.63,1.71,2.09,2.09,0,0,0,.67.27,2.24,2.24,0,0,0,.72.1,3.18,3.18,0,0,0,1.24-.27,5.9,5.9,0,0,0,.69-.37l.1-.08a4.19,4.19,0,0,0,.43-.47,11.38,11.38,0,0,0,1.9-6.29,11.07,11.07,0,0,0,1.14-2.81,9,9,0,0,0,.28-3.61s0-.08,0-.1a12.2,12.2,0,0,0,1.16-6.65,16,16,0,0,0,.5-7.71.81.81,0,0,0-.2-.77.74.74,0,0,0-1,0l-.08.07a.38.38,0,0,0-.12.18,30.89,30.89,0,0,0-5.08,11.8c-.08.34-.15.69-.2,1A3.33,3.33,0,0,0-327.45,378.52Zm.94,13.09a1.74,1.74,0,0,1-1.41.33,2.06,2.06,0,0,1-1-.65,17.12,17.12,0,0,0,3.92-3.2A8,8,0,0,1-326.51,391.61Zm2-6.29a16.36,16.36,0,0,1-4.54,4.38,16.45,16.45,0,0,1,1.59-4.16,0,0,0,0,0,0,0c.12-.12,2.52-2.3,4.23-4.21A9.42,9.42,0,0,1-324.55,385.32Zm3.2-18.47a14,14,0,0,1-.67,5.53c-.89,1.14-2,2.4-3,3.47A32,32,0,0,1-321.35,366.85Zm-.65,7.78a11.67,11.67,0,0,1-1.19,4.39,35.78,35.78,0,0,1-4.09,4.36,14.87,14.87,0,0,1,1.07-4.16C-325.76,378.77-323.76,376.71-322,374.63Z" transform="translate(366.79 -364.11)"/></svg>